PathFileType	4	(X/Y/Z)	72_2_48_p0_0-482.trc
DataRate	CameraRate	NumFrames	NumMarkers	Units	OrigDataRate	OrigDataStartFrame	OrigNumFrames
60.0	60.0	6	27	m	60.0	181	483
Frame#	Time	RHip			RKnee			RAnkle			RBigToe			RSmallToe			RHeel			LHip			LKnee			LAnkle			LBigToe			LSmallToe			LHeel			Neck			Head			Nose			RShoulder			RElbow			RWrist			RThumb			RIndex			RPinky			LShoulder			LElbow			LWrist			LThumb			LIndex			LPinky			
		X1	Y1	Z1	X2	Y2	Z2	X3	Y3	Z3	X4	Y4	Z4	X5	Y5	Z5	X6	Y6	Z6	X7	Y7	Z7	X8	Y8	Z8	X9	Y9	Z9	X10	Y10	Z10	X11	Y11	Z11	X12	Y12	Z12	X13	Y13	Z13	X14	Y14	Z14	X15	Y15	Z15	X16	Y16	Z16	X17	Y17	Z17	X18	Y18	Z18	X19	Y19	Z19	X20	Y20	Z20	X21	Y21	Z21	X22	Y22	Z22	X23	Y23	Z23	X24	Y24	Z24	X25	Y25	Z25	X26	Y26	Z26	X27	Y27	Z27	
181	3.0166666666666666	0.2253902970222657	0.4503672030880751	0.6307035461787648	0.23329965113613882	0.5048228346583976	1.0487738760967051	0.2165483629296405	0.577883635244684	1.4681590742761168	0.18901967521603463	0.38615306664996857	1.4598039974900008	0.23503651473741996	0.4279557960662687	1.4701466968456345	0.19280861507901745	0.5878718054840472	1.499934153221381	0.02460085622766191	0.5230716688257051	0.6508075290721559	0.0361552037524922	0.539399219613862	1.0479154766334966	0.03888585836563675	0.5872804622911902	1.442414386517142	-0.0033185686411936004	0.4592494929288553	1.4701954264669586	-0.044746696811849986	0.5238537869157647	1.4710254280190087	0.05969145402813892	0.6282867879966624	1.509932441202948	0.1192797894395681	0.4963595759651402	0.05781436403737109	0.12220738661758168	0.4496696463409838	-0.22194416629012406	0.10942045689743624	0.35305467763626164	-0.07060873158708698	0.27898238981113016	0.42162101747148584	0.13624105218663257	0.29358549760253383	0.4020538076769049	0.39203322937410573	0.12729052792926285	0.3114616682581261	0.56466581757234	0.06749590857914134	0.3598944119629239	0.634981099701703	0.07106404583780775	0.39762397792330284	0.696420697675485	0.06144076782890016	0.3734539321706445	0.6782270475823646	-0.04496019849743033	0.545040485194068	0.13045834857914018	-0.06968836715301897	0.5125173452138855	0.4075685286243764	0.03893431260941567	0.33442539074733996	0.5737910951114586	0.12952567148780667	0.3202871858615974	0.620310021653387	0.13690507372818295	0.33291085798276415	0.6773229461929383	0.0897616718945729	0.3571436880137892	0.7012461819223222
182	3.033333333333333	0.22606602118417105	0.4512514289577862	0.6347654317385448	0.23329778191413886	0.5033312543502455	1.0526477791683866	0.21659854333257794	0.5779360991150704	1.4682575500769743	0.1890403088972661	0.3862170021067202	1.4599247548521506	0.23614731099908456	0.42940223115986037	1.4750274545270192	0.19287276483325974	0.589696090479207	1.4960132054555322	0.025160165276979504	0.5240769355380573	0.655470386457723	0.036108744886837206	0.5393444647318796	1.0479466713385424	0.03885575393396875	0.5872969719168494	1.4424519187896567	0.0014358549022088405	0.4610802760216674	1.4717599678311752	-0.04481014729516917	0.5238104005388384	1.4711213865578703	0.05860629897242373	0.6288100898584886	1.5147629138051388	0.11928470517081916	0.49644429321565864	0.057814450813486816	0.12217296583661261	0.4496128564089452	-0.22196994578159412	0.10942382347519215	0.35297210526765593	-0.07062293840724389	0.2789794548819742	0.4216334751313092	0.13620262296167218	0.2936082341229469	0.4021158058695071	0.39204453705886927	0.12728660696927568	0.311431169823711	0.5646526945828655	0.0700220233893	0.35989249162393583	0.6356205010250456	0.07097199448805061	0.39745490445014553	0.6962471917308598	0.0604711922043625	0.37286713184855813	0.6811180482282136	-0.04496051833404098	0.5450329731564437	0.13044898870505223	-0.06973318650691376	0.5124156031536883	0.4075211266215628	0.03953142676525123	0.3353288404325742	0.577507006193086	0.12966327503274191	0.32052133407554645	0.6205462416950669	0.13702486043727907	0.33313819745173867	0.6774242775590915	0.08978516278749506	0.3572788781945089	0.7013117350427076
183	3.05	0.22611913685452567	0.4503584001685546	0.6386399176087119	0.2332434840624827	0.503310378358179	1.0527458915671404	0.21657497499199252	0.577873560957199	1.4683014114753543	0.1890091905423728	0.3860054708398872	1.4598186007058687	0.23617394001664518	0.4275542089333901	1.4787865372309301	0.1925320907898713	0.5871752425255096	1.4996290260924783	0.02515198626416652	0.5240979548834234	0.6555649129629425	0.036909863432780146	0.540558364750025	1.052947264382757	0.039844792233203176	0.5887463090824353	1.448272063330151	0.0014589300384557579	0.4611280551920808	1.4717364463306477	-0.04472708056171473	0.523851283938822	1.4710542398180264	0.05963068220270887	0.6283033288837641	1.5100118929548	0.119272760213799	0.49639663827881	0.05778754895132544	0.12213177108676057	0.44988903896876736	-0.22190297523744357	0.1093153190289299	0.35305457105428256	-0.07058289374644967	0.27855308972742543	0.4209473746068961	0.13226842511297474	0.29356625727753477	0.40215143233740974	0.3920293123563119	0.1272325161819845	0.3113643130435202	0.5646368568497001	0.06760258884840424	0.37329567998027524	0.6356136875516367	0.07064652396272303	0.39706119616815577	0.6957870484639854	0.06010215413095448	0.37177352968606026	0.6804378846965438	-0.0450164140056378	0.5454630548158738	0.1268688040947387	-0.06977294649119832	0.5123239404523575	0.40755622713712314	0.03950869572532731	0.33525835645238283	0.577575577360682	0.1304147000157144	0.32175855683473426	0.6242519593599687	0.13700882487592891	0.3330293090043293	0.6773674256864112	0.0905620957507511	0.3581914577404933	0.706306918699066
184	3.066666666666667	0.2261383046097676	0.45025856802670566	0.6387095995530666	0.23330037166776743	0.5034210207660592	1.0527331598008773	0.2166467776718076	0.5779762768142386	1.468363557217198	0.18910203710267026	0.38618885010760456	1.459946336853379	0.23616550156256838	0.4275493309805096	1.478834262177585	0.19312128321124625	0.5883965376448544	1.5004815410831291	0.025103252863019215	0.5238374252545542	0.6554929667366147	0.036865564448498825	0.5404835758656444	1.0530189344473395	0.044806251795152775	0.6016513385497693	1.45591135819851	-0.003284435495420693	0.4592119580924232	1.4702517805103157	-0.04479105294137575	0.5236860872514938	1.4710197535523946	0.0596896719986163	0.6285089150815947	1.5102018678537812	0.11925783576280514	0.49636971199855723	0.057761746585322855	0.1220632053914521	0.4499462420780818	-0.22178671368225078	0.10907482480699779	0.35251056814843185	-0.07404168366486293	0.27852260878924445	0.42087592535545937	0.13218013697437017	0.29360066471023255	0.4021695492095382	0.3919578530095789	0.12724488789939536	0.31133120711809925	0.5646082926895083	0.06756414779698221	0.3731947372266052	0.6362495049398389	0.07076506891259661	0.3972454443795546	0.6960557421084678	0.060412749470870324	0.37238957612522283	0.6809157885164797	-0.044990213355566154	0.5448804993425	0.13040294220292328	-0.06976161368084052	0.5123458017543604	0.40762281147686147	0.03952145398190095	0.33524114233114966	0.5775767405709301	0.13032641429550895	0.32162630349056953	0.6241981030048601	0.13694190988157198	0.33289906453575835	0.6773444910316009	0.0905650765631011	0.35804893871408217	0.7062319137595053
185	3.0833333333333335	0.22661641441153063	0.45033231052649086	0.6350169055161585	0.2396978937296721	0.5181692027698623	1.059026367874907	0.21675776147720044	0.5766570901007493	1.4718965724118984	0.18919776684863865	0.3861887250255001	1.4600305248388945	0.2376949456826226	0.4130346531066515	1.4699448445951617	0.19290545144168514	0.5882299744381609	1.500251448183763	0.025109166032904636	0.523961906772624	0.6555527631747831	0.036856610664494076	0.5403963320016375	1.0530024660699413	0.038828297040972265	0.5872051564363664	1.4424654113885031	-0.0033270968405169125	0.459210637027904	1.4701968479414698	-0.04483914818985066	0.5235595302529595	1.4709069356423536	0.05964123071239727	0.6283972107524423	1.5100375455567143	0.1192201483166429	0.49631237769843556	0.05770378225620842	0.12016592506897208	0.4622147728554402	-0.221656115291507	0.10536188506426152	0.3528205332621738	-0.07710941676910753	0.27893028778069295	0.421564164325939	0.136112557696364	0.2935549381327622	0.40204952887220324	0.39199215332021986	0.12723266574607156	0.3112727358907101	0.5645736391109941	0.06100600931602905	0.36161591106623747	0.6270115763954222	0.07081212870691082	0.3972215210495734	0.6961030390661358	0.06046935310879296	0.37302171719492655	0.6811469721399261	-0.04505538286062201	0.5447854806433543	0.13039720480633055	-0.06977707980645208	0.5123797569747383	0.4075783546549559	0.03947807806289164	0.33527164589962327	0.5775268210814879	0.13025710296620224	0.32164383708706895	0.6242345530095623	0.13689304581394574	0.3328965536332943	0.677299876994657	0.08973301858173875	0.3572282020901713	0.7011966033011875
186	3.1	0.2208367798730516	0.4391541783692757	0.6351300893777606	0.23332591431620228	0.5035479919365697	1.0526191928605413	0.2165772701923342	0.5778682379612373	1.4681850004539143	0.1890358254649453	0.3862388472180372	1.4599792748244624	0.23501821985073967	0.42931973720746885	1.47972320489072	0.1930719802784251	0.5882390913900367	1.5002675535027248	0.025598947459616068	0.5239622776036746	0.6514029719819661	0.036769037575721315	0.5402791910272468	1.0530197167060507	0.038834262277200514	0.5870521199287158	1.4424082434654253	-0.003267334445784908	0.45944528163319337	1.470399546118752	-0.04480261216589715	0.5237757754526348	1.4710582984848093	0.059723209608398685	0.6281242785768614	1.5098499925729119	0.1191845031758966	0.4963365580837645	0.057727103350191857	0.11564791021369028	0.45147010481447475	-0.2217514190780862	0.10095365115030012	0.34310039066235487	-0.07775698789921656	0.27718936952146533	0.43421051409703554	0.13788516825994598	0.2934970620423167	0.4022580848284006	0.3920113542459573	0.1272146224519213	0.31120427066111134	0.564563406182311	0.0614125482775868	0.35949298731818846	0.6436929646370884	0.07074826349409961	0.3975004851309886	0.6960150568419102	0.060445573170373426	0.37291900938970296	0.6810942215299217	-0.04508627570528479	0.5446500500434385	0.13037898090394076	-0.06973027255826712	0.5118665268137745	0.4109747786692858	0.03940034703937742	0.33504798234105654	0.5776098123942379	0.130281378282239	0.3217303449447098	0.6282191875764287	0.13686895619078157	0.33192377529849537	0.6815209037234093	0.08952856427051548	0.3581758404143113	0.6987148933177475
